<svg width="16" height="20" viewBox="0 0 16 20" fill="none" xmlns="http://www.w3.org/2000/svg">
<path d="M15.2666 5.8C14.7333 2.06666 11 0.199999 7.06664 0.666665C3.93331 0.999999 0.799973 3.53333 0.66664 7.13333C0.599973 9.33333 1.19997 11 3.33331 11.4667C4.26664 9.86666 3.06664 9.53333 2.86664 8.33333C2.06664 3.53333 8.39997 0.333332 11.6666 3.66666C13.9333 6 12.4666 13.0667 8.79997 12.3333C5.26664 11.6 10.5333 6 7.73331 4.86666C5.46664 3.93333 4.26664 7.6 5.33331 9.46666C4.66664 12.6 3.33331 15.5333 3.86664 19.4667C5.66664 18.1333 6.26664 15.6667 6.73331 13.0667C7.59997 13.6 8.13331 14.2 9.26664 14.2667C13.4666 14.6 15.8 10 15.2666 5.8Z" fill="black"/>
</svg>
