<svg width="19" height="14" viewBox="0 0 19 14" fill="none" xmlns="http://www.w3.org/2000/svg">
<path d="M13.6 4.60003C13.6 4.60003 12.1333 9.2667 12 9.60003C11.9333 9.20003 10.8666 0.866699 10.8666 0.866699C8.33331 0.866699 6.99998 2.6667 6.26665 4.53337C6.26665 4.53337 4.46665 9.20003 4.33332 9.60003C4.33332 9.2667 4.06665 4.60003 4.06665 4.60003C3.93332 2.2667 1.79998 0.866699 0.0666504 0.866699L2.13332 13.4667C4.79998 13.4667 6.19998 11.6667 6.93332 9.80003C6.93332 9.80003 8.53332 5.6667 8.59998 5.53337C8.59998 5.73337 9.73332 13.5334 9.73332 13.5334C12.4 13.5334 13.8 11.8667 14.6 10L18.3333 0.866699C15.7333 0.866699 14.3333 2.6667 13.6 4.60003Z" fill="black"/>
</svg>
